<svg width="1980" height="1731" viewBox="0 0 1980 1731" fill="none" xmlns="http://www.w3.org/2000/svg">
<path d="M1642.58 416.217C1723.15 527.355 1720.85 678.883 1651.7 834.181C1582.56 989.461 1446.63 1148.35 1260.27 1273.98C1073.91 1399.61 872.49 1468.14 697.516 1477.43C522.521 1486.72 374.161 1436.75 293.597 1325.61C213.032 1214.48 215.329 1062.95 284.481 907.65C353.624 752.37 489.552 593.485 675.909 467.855C862.267 342.225 1063.69 273.691 1238.66 264.403C1413.66 255.114 1562.02 305.079 1642.58 416.217Z" stroke="url(#paint0_linear_165_37)" stroke-width="2"/>
<path d="M1709.94 370.808C1783.75 472.623 1774.79 616.137 1700.21 766.06C1625.65 915.95 1485.6 1072.02 1297.69 1198.7C1109.78 1325.38 909.676 1398.61 738.091 1414.66C566.467 1430.71 423.622 1389.53 349.816 1287.71C276.01 1185.9 284.972 1042.39 359.548 892.462C434.107 742.572 574.162 586.498 762.071 459.822C949.981 333.146 1150.08 259.908 1321.67 243.864C1493.29 227.816 1636.14 268.993 1709.94 370.808Z" stroke="url(#paint1_linear_165_37)" stroke-width="2"/>
<path d="M369.537 847.565V847.576C372.048 851.909 375.386 855.778 379.464 858.939C380.484 859.725 381.535 860.465 382.641 861.141C384.057 862.045 385.549 862.85 387.105 863.569C392.696 866.15 398.578 867.299 404.341 867.181C411.338 867.041 418.163 865.042 424.098 861.428C426.577 859.923 428.895 858.139 431.009 856.087C434.433 852.786 437.309 848.797 439.412 844.209C440.131 842.64 440.743 841.049 441.237 839.447C442.321 835.997 442.911 832.471 443.018 828.975C443.147 824.911 442.643 820.87 441.559 817.012C440.4 812.851 438.554 808.896 436.096 805.317C433.95 802.178 431.331 799.328 428.283 796.879C426.974 795.824 425.579 794.848 424.119 793.965C422.832 793.182 421.49 792.46 420.095 791.816C402.516 783.711 382.061 789.656 371.329 804.995C369.988 806.908 368.797 808.971 367.788 811.176C367.273 812.306 366.811 813.454 366.403 814.605C362.454 825.817 363.881 837.824 369.537 847.563V847.565Z" fill="url(#paint2_radial_165_37)"/>
<defs>
<linearGradient id="paint0_linear_165_37" x1="89.6742" y1="891.912" x2="1691.29" y2="1423.21" gradientUnits="userSpaceOnUse">
<stop stop-color="#EE1B62"/>
<stop offset="0.401042" stop-color="#F57442" stop-opacity="0"/>
<stop offset="1" stop-color="#E616AA"/>
</linearGradient>
<linearGradient id="paint1_linear_165_37" x1="169.666" y1="885.535" x2="1660.42" y2="1458.31" gradientUnits="userSpaceOnUse">
<stop stop-color="#07BEF0"/>
<stop offset="0.401042" stop-color="#F57442" stop-opacity="0"/>
<stop offset="1" stop-color="#A347C2"/>
</linearGradient>
<radialGradient id="paint2_radial_165_37" cx="0" cy="0" r="1" gradientUnits="userSpaceOnUse" gradientTransform="translate(364.167 855.689) rotate(-45.9583) scale(93.9021 94.0558)">
<stop stop-color="#FADC2F"/>
<stop offset="0.36" stop-color="#EF1B52"/>
<stop offset="0.61901" stop-color="#E515AF"/>
<stop offset="1" stop-color="#06BDEF"/>
</radialGradient>
</defs>
</svg>
