<svg version="1.1" id="Layer_1" xmlns="http://www.w3.org/2000/svg" xmlns:xlink="http://www.w3.org/1999/xlink" x="0px" y="0px" viewBox="0 0 429.7 128.2" style="enable-background:new 0 0 429.7 128.2;" xml:space="preserve" width="200" height="60" aria-labelledby="uniqueTitleID uniqueDescID"><title id="uniqueTitleID">TextExpander - Unlock Your Productivity</title> <desc id="uniqueDescID">Instantly insert snippets of text from a repository of emails, boilerplate and other content, as you type – using a quick search or abbreviation. Works with Mac, Windows, Chrome, iPhone, and iPad.</desc><g> <path class="st0" d="M36.8,128.2c-8.9,0-16-1.9-21.1-5.6c-5.4-4-7.9-10.2-7.5-18.5c0.1-1.5,0.3-3.2,0.6-5.1 c0.3-1.9,0.7-3.7,1.1-5.4l7.8-33.1H2.9c-0.9,0-1.7-0.4-2.3-1.1s-0.7-1.6-0.5-2.5l5-20.8C5.4,34.9,6.6,34,7.9,34h15.7l5-21.9 c0.2-1,0.9-1.8,1.9-2.1l29.6-9.9c1-0.3,2.1-0.1,2.9,0.6c0.8,0.7,1.1,1.8,0.9,2.8L43.1,92.3c-0.1,0.7-0.3,1.4-0.3,2.2 c-0.1,0.8-0.2,1.5-0.2,2c-0.1,1,0,2.8,0.8,3.4c1.1,0.7,2.7,1.1,4.9,1.1c1.2,0,2.4-0.1,3.6-0.3c1.4-0.2,2.5-0.5,3.5-0.7 c1-0.2,2,0.1,2.7,0.8c0.7,0.7,1,1.7,0.8,2.7l-4.7,20.3c-0.2,0.9-0.8,1.7-1.7,2c-1.9,0.8-3.5,1.1-6.7,1.7 C42.7,128,39.6,128.2,36.8,128.2z M6.6,54.8h14.9c0.9,0,1.7,0.4,2.3,1.1s0.8,1.6,0.5,2.5l-8.7,36.7c-0.4,1.6-0.8,3.2-1,4.9 c-0.3,1.7-0.4,3.2-0.5,4.5c-0.4,6.3,1.3,10.7,5.1,13.5c4.1,3,10,4.5,17.7,4.5c2.5,0,5.2-0.2,8-0.7c1.9-0.3,3.1-0.5,4.1-0.8 l3.3-14.4c-1.3,0.2-2.6,0.3-3.9,0.3c-3.4,0-6.1-0.7-8.1-2.1c-2.5-1.6-3.6-4.5-3.4-8.5c0-0.7,0.1-1.5,0.2-2.4 c0.1-0.9,0.3-1.8,0.4-2.7L57.1,7.3L34,15l-5.2,22.5c-0.3,1.3-1.5,2.2-2.8,2.2H10.2L6.6,54.8z"></path> </g> <g> <path class="st0" d="M59.1,60.7c-0.5,0-1.1-0.2-1.5-0.6C57,59.6,56.8,58.8,57,58l5.2-22.5c0.1-0.6,0.5-1.1,1.1-1.4 c0.6-0.3,1.2-0.3,1.8-0.1l28.3,11.3c0.8,0.3,1.4,1.2,1.4,2.1s-0.6,1.7-1.5,2L59.8,60.6C59.6,60.6,59.3,60.7,59.1,60.7z"></path> </g> <g> <path class="st1" d="M426.7,39.7c-1.7,0-3.1-1.4-3.1-3.1c0-1.7,1.4-3.1,3.1-3.1c1.7,0,3,1.4,3,3.1 C429.7,38.4,428.3,39.7,426.7,39.7z M426.7,34.2c-1.3,0-2.4,1.1-2.4,2.5s1,2.5,2.4,2.5c1.3,0,2.4-1.1,2.4-2.5S428,34.2,426.7,34.2z M427.3,38.4c-0.1-0.2-0.2-0.3-0.3-0.6c-0.3-0.6-0.4-0.8-0.6-0.8c0,0-0.1,0-0.1,0v1.4h-0.7v-3.4h1.3c0.6,0,1,0.4,1,1 c0,0.5-0.3,0.9-0.8,0.9c0.1,0.1,0.1,0.1,0.1,0.2c0.2,0.2,0.8,1.3,0.8,1.3L427.3,38.4L427.3,38.4z M426.9,35.5c-0.1,0-0.2,0-0.4,0 h-0.2v0.9h0.2c0.3,0,0.4,0,0.5-0.1c0.1-0.1,0.1-0.2,0.1-0.3C427.1,35.7,427.1,35.6,426.9,35.5z"></path> </g> <path class="st1" d="M117.9,56.3c0-0.3,0.1-1,0.2-1.5l3.8-17.2h-4.4l0.8-3.6h4.4l1.2-5.7l4.4-1.5l-1.6,7.2h5.4l-0.8,3.6H126 l-3.6,16.3c-0.1,0.3-0.1,0.7-0.1,1.1c0,1.6,0.9,2.5,2.6,2.5c1,0,2-0.4,2.5-0.9l-0.9,4c-0.4,0.3-1.3,0.5-2.6,0.5 C120.2,61.1,117.9,59.6,117.9,56.3z"></path> <path class="st1" d="M185.6,56.3c0-0.3,0.1-1,0.2-1.5l3.8-17.2h-4.4L186,34h4.4l1.3-5.7l4.4-1.5l-1.6,7.2h5.4l-0.8,3.6h-5.4 L190,53.9c-0.1,0.3-0.1,0.7-0.1,1.1c0,1.6,0.9,2.5,2.6,2.5c1,0,2-0.4,2.5-0.9l-0.9,4c-0.4,0.3-1.3,0.5-2.6,0.5 C187.9,61.1,185.6,59.6,185.6,56.3z"></path> <path class="st1" d="M131.6,49.4c0-8.8,6.5-16,14.9-16c6.9,0,11.4,4.8,11.4,11.5c0,1.3-0.3,2.9-0.4,3.7h-21.6c0,0.2-0.1,0.9-0.1,1.3 c0,4.1,3,7.9,9,7.9c2.6,0,5.5-0.9,7.6-2.6l1.4,2.8c-2.4,1.9-5.9,3.1-9.2,3.1C136.4,61.1,131.6,56.5,131.6,49.4z M154,45.6 c0.1-0.2,0.1-0.8,0.1-1c0-4.4-2.8-7.8-8-7.8c-4.9,0-9,4.1-9.8,8.8H154z"></path> <path class="st1" d="M174.6,60.5L169,49.6l-10.3,10.8h-4.9l13.1-13.6L160.2,34h4.5l5.1,10.1l9.6-10.1h4.9l-12.5,12.9l7.2,13.6H174.6 z"></path> <g> <g> <path class="st1" d="M213.1,61.1c-8.2,0-13.3-4.5-13.3-11.8c0-8.9,6.6-15.9,15.1-15.9c7,0,11.7,4.7,11.7,11.7c0,1.4-0.3,3.1-0.5,4 l-0.1,0.2h-20c0,0,0,0.1,0,0.1c0,0.2,0,0.4,0,0.5c0,2.9,2.7,6,7.6,6c2.4,0,5.1-0.8,6.8-2.1l0.3-0.2l2,4.4l-0.2,0.1 C219.9,60,216.4,61.1,213.1,61.1z M206.6,44.9h14.3c0-0.2,0-0.4,0-0.5c0-3.5-2.6-5.8-6.5-5.8C210.2,38.6,207.3,41.8,206.6,44.9z"></path> </g> <g> <path class="st1" d="M249.4,60.5h-6.7l-0.1-0.2l-4.4-9.2l-8.7,9.3h-7.2L235,46.9l-6.2-12.8h6.7l4.1,8.6l7.9-8.6h7.3L242.7,47 L249.4,60.5z"></path> </g> <g> <path class="st1" d="M256,70.3h-6.2l8-36.3h6.2l-0.6,2.7c2.2-2.3,4.7-3.4,7.7-3.4c6.2,0,10.2,4.3,10.2,11 c0,8.2-5.2,16.7-13.9,16.7c-3.5,0-6.6-1.4-8.4-4L256,70.3z M260,52.3c1.2,2,3.7,3.3,6.5,3.3c4.1,0,8.3-3.8,8.3-10.1 c0-3.9-2.5-6.6-6.1-6.6c-2.4,0-4.8,1.3-6.6,3.5L260,52.3z"></path> </g> <g> <path class="st1" d="M293.7,61.1c-6.3,0-10.2-4.2-10.2-10.9c0-8.2,5.2-16.8,13.9-16.8c3.5,0,6.6,1.5,8.4,4l0.7-3.3h6.2l-5.9,26.4 h-6.2l0.6-2.8C299.2,60,296.6,61.1,293.7,61.1z M298.3,38.9c-4.1,0-8.3,3.8-8.3,10.1c0,4,2.4,6.5,6.1,6.5c2.4,0,4.9-1.3,6.5-3.5 l2.2-9.9C303.5,40.2,301,38.9,298.3,38.9z"></path> </g> <g> <path class="st1" d="M335.9,60.5h-6.2l3.7-16.8c0.1-0.4,0.2-0.9,0.2-1.3c0-3.2-3.1-3.4-4.1-3.4c-3.1,0-5.6,1.8-7.2,3.4l-4,18.2 h-6.2l5.9-26.4h6.2l-0.7,3c2.8-2.5,5.5-3.7,8.4-3.7c5.1,0,8.2,2.6,8.2,6.8c0,0.5-0.2,1.7-0.3,2.2L335.9,60.5z"></path> </g> <g> <path class="st1" d="M352.3,61.1c-6.3,0-10.2-4.2-10.2-10.9c0-8.2,5.2-16.8,13.9-16.8c3.5,0,6.6,1.5,8.4,4l2.4-10.7l6.7-2.4 l-8,36.3h-6.2l0.6-2.8C357.8,60,355.3,61.1,352.3,61.1z M356.9,38.9c-4.1,0-8.3,3.8-8.3,10.1c0,4,2.4,6.5,6.1,6.5 c2.4,0,4.9-1.3,6.5-3.5l2.2-9.9C362.1,40.2,359.7,38.9,356.9,38.9z"></path> </g> <g> <path class="st1" d="M385.8,61.1c-8.2,0-13.3-4.5-13.3-11.8c0-8.9,6.6-15.9,15.1-15.9c7,0,11.7,4.7,11.7,11.7c0,1.3-0.3,3.1-0.5,4 l-0.1,0.2h-20c0,0,0,0.1,0,0.1c0,0.2,0,0.4,0,0.5c0,3,2.6,6,7.6,6c2.4,0,5.1-0.8,6.8-2.1l0.3-0.2l2,4.4l-0.2,0.1 C392.6,60,389.2,61.1,385.8,61.1z M379.3,44.9h14.3c0-0.2,0-0.4,0-0.5c0-3.5-2.6-5.8-6.5-5.8C383,38.6,380.1,41.8,379.3,44.9z"></path> </g> <g> <path class="st1" d="M404.7,60.5h-6.2l5.9-26.4h6.2l-0.7,3c2.5-2.5,5.2-3.6,8.9-3.6h0.3l-1.4,6.2l-0.3-0.1 c-0.4-0.1-1.3-0.3-2.2-0.3c-2.8,0-5.3,1.8-6.6,3.4L404.7,60.5z"></path> </g> </g> </svg>